<svg width="28" height="41" viewBox="0 0 28 41" fill="none" xmlns="http://www.w3.org/2000/svg">
<path d="M1.66067e-06 25.5382C1.66067e-06 24.5761 -0.00484088 24.1435 0.508468 23.5818C0.61339 23.5947 0.736068 23.5737 0.818391 23.6238C2.16462 24.4179 3.50277 25.225 4.849 26.0208C7.76905 27.7464 10.6923 29.4671 13.6156 31.191C13.6156 31.2895 13.6156 31.388 13.6156 31.488C13.5704 31.5801 13.4962 31.6688 13.4816 31.7673C13.2411 33.4832 12.6261 35.057 11.6818 36.5001C11.0345 37.4896 10.1742 38.1869 8.99583 38.4758C7.78842 38.7712 6.69078 38.2902 5.55117 38.0804C3.12021 36.1127 1.43017 33.6736 0.595634 30.6164C0.368035 29.7835 0.217916 29.0474 0.135593 28.116C1.66448e-06 27.154 1.66067e-06 26.3953 1.66067e-06 25.5382Z" fill="#77BCE2"/>
<path d="M13.6144 31.4864C13.6144 31.3879 13.6144 31.2894 13.6144 31.1894C15.4755 30.1063 17.3496 29.0441 19.193 27.9319C21.674 26.4356 24.2292 25.0619 26.6344 23.4397C26.8426 23.4332 26.8862 23.5608 26.9185 23.7399C27.8627 28.8843 26.5036 33.312 22.833 37.0359C22.4036 37.4718 21.9887 37.9108 21.4577 38.224C21.3269 38.2304 21.2107 38.2579 21.1639 38.4031L21.1687 38.3999C20.9573 38.4064 20.741 38.3854 20.5344 38.4241C17.8032 38.9326 16.2891 38.1642 15.0042 35.7042C14.3069 34.3661 13.9372 32.9391 13.6144 31.4864Z" fill="#5679A8"/>
<path d="M1.06104 20.7084C2.35076 18.5599 3.63727 16.4098 4.93022 14.2646C6.27645 12.0305 7.63075 9.79973 8.9802 7.5657C10.4556 5.12668 11.9277 2.68604 13.3982 0.245397C13.4386 0.179215 13.4515 0.0952781 13.4773 0.0210259C13.6 -0.00802939 13.7194 -0.0322421 13.7711 0.13079C13.5241 0.406815 13.6355 0.744178 13.6339 1.05249C13.6258 5.72877 13.6258 10.4067 13.6258 15.0829C12.9511 15.3929 12.2747 15.7012 11.6 16.0111C9.6969 16.8876 7.81476 17.8141 5.88421 18.6293C4.27325 19.3105 2.76077 20.2273 1.06104 20.7084Z" fill="#78BCE2"/>
<path d="M13.6273 15.0835C13.6289 10.4072 13.6273 5.72932 13.6354 1.05304C13.6354 0.744736 13.5256 0.407372 13.7726 0.131348C14.9752 2.11195 16.1793 4.09255 17.3803 6.07476C19.0494 8.82855 20.7636 11.5565 22.3681 14.349C23.5594 16.4233 24.9669 18.3716 25.9855 20.5459C25.5061 20.6072 25.1138 20.3522 24.7119 20.1698C21.6498 18.7767 18.6006 17.3514 15.5256 15.9858C14.909 15.7114 14.3569 15.2352 13.6273 15.2368C13.6305 15.1852 13.6305 15.1352 13.6273 15.0835Z" fill="#5779A9"/>
<path d="M13.6266 15.2361C14.3546 15.2361 14.9083 15.7123 15.5249 15.9851C18.5999 17.3507 21.6475 18.776 24.7112 20.169C25.1132 20.3514 25.5054 20.6081 25.9848 20.5451L25.9784 20.5435C25.9687 20.6613 26.0461 20.6952 26.1414 20.7114C25.754 21.3474 24.9679 21.4136 24.4626 21.8849C24.3303 22.0076 24.1495 22.077 23.9897 22.1722C21.7896 23.4555 19.5943 24.7452 17.3909 26.022C16.1512 26.7403 15.0068 27.6314 13.6347 28.114C13.6315 23.8203 13.6283 19.5282 13.6266 15.2361Z" fill="#1D4C67"/>
<path d="M13.6337 28.1146C15.0041 27.632 16.1485 26.741 17.3898 26.0227C19.5932 24.7459 21.7901 23.4577 23.9886 22.1729C24.87 22.5958 25.7529 23.0187 26.6343 23.4416C24.2291 25.0638 21.6739 26.4375 19.1929 27.9339C17.3495 29.046 15.4754 30.1065 13.6143 31.1913C10.6926 29.4689 7.76934 27.7482 4.84767 26.0211C3.50145 25.2253 2.16329 24.4182 0.817064 23.624C0.73474 23.5756 0.612063 23.5949 0.507141 23.582C1.30455 22.9347 2.2892 22.6894 3.21089 22.3117C4.07609 22.3972 4.67657 23.0106 5.37712 23.4174C6.93158 24.3181 8.44729 25.2866 10.0195 26.155C11.2205 26.8168 12.302 27.6982 13.6337 28.1146Z" fill="#153D50"/>
<path d="M13.6138 31.4863C13.9366 32.9391 14.3063 34.3676 15.0052 35.7042C16.2917 38.1642 17.8058 38.9325 20.5354 38.4241C20.7404 38.3853 20.9583 38.4063 21.1698 38.3999C19.3861 39.8236 17.3764 40.671 15.0875 40.8163C14.1142 40.8163 13.1392 40.8163 12.1659 40.8163C9.63 40.7065 7.51219 39.5831 5.55096 38.077C6.68896 38.2869 7.78822 38.7679 8.99401 38.4725C10.174 38.1836 11.0343 37.4862 11.68 36.4967C12.6243 35.0521 13.2377 33.4782 13.4798 31.764C13.4927 31.6671 13.567 31.5783 13.6138 31.4863Z" fill="#5CA7C4"/>
<path d="M12.1641 40.8164C13.1374 40.8164 14.1124 40.8164 15.0857 40.8164C14.1124 41.0601 13.139 41.0634 12.1641 40.8164Z" fill="#5CA7C4"/>
<path d="M21.164 38.4035C21.2109 38.2579 21.3275 38.2304 21.4586 38.2239C21.4019 38.3517 21.3 38.4035 21.164 38.4035Z" fill="#5CA7C4"/>
<path d="M26.1407 20.7118C26.0452 20.6956 25.9676 20.6616 25.9773 20.5435C26.0906 20.5435 26.1391 20.6033 26.1407 20.7118Z" fill="#5779A9"/>
<path d="M13.6339 28.1138C12.3022 27.6973 11.2207 26.8176 10.0213 26.1558C8.44914 25.2874 6.93342 24.3189 5.37897 23.4181C4.67841 23.0114 4.07632 22.3996 3.21274 22.3124C2.77852 21.8443 2.20226 21.5828 1.67927 21.2406C1.4549 21.0937 1.07072 21.1115 1.06104 20.7079C2.75915 20.2285 4.27164 19.3117 5.88582 18.6289C7.81476 17.8137 9.6969 16.8888 11.6016 16.0107C12.2764 15.6991 12.9527 15.3924 13.6274 15.0825C13.6307 15.1342 13.6307 15.1842 13.6274 15.2359C13.629 19.528 13.6323 23.8201 13.6339 28.1138Z" fill="#476186"/>
</svg>
