<svg width="1440" height="1024" viewBox="0 0 1440 1024" fill="none" xmlns="http://www.w3.org/2000/svg">
<g clip-path="url(#clip0_401_183)">
<rect width="1440" height="1024" fill="black"/>
<g filter="url(#filter0_f_401_183)">
<path fill-rule="evenodd" clip-rule="evenodd" d="M1294.25 799.288C1364 801.307 1438.26 781.948 1497.53 818.779C1558.5 856.66 1588.75 927.467 1610.61 995.851C1632.38 1063.96 1640.43 1136.07 1620.95 1204.87C1600.93 1275.56 1558.59 1337.75 1500.91 1383.23C1441.51 1430.04 1369.14 1472.88 1294.25 1462.41C1221.88 1452.29 1188.62 1367.91 1125.69 1330.77C1051.84 1287.19 934.308 1305 896.805 1227.86C860.041 1152.25 926.145 1067 960.03 990.046C990.366 921.153 1016.87 844.064 1082.23 806.758C1145.2 770.822 1221.79 797.191 1294.25 799.288Z" fill="#FFBC57"/>
<path fill-rule="evenodd" clip-rule="evenodd" d="M1294.25 799.288C1364 801.307 1438.26 781.948 1497.53 818.779C1558.5 856.66 1588.75 927.467 1610.61 995.851C1632.38 1063.96 1640.43 1136.07 1620.95 1204.87C1600.93 1275.56 1558.59 1337.75 1500.91 1383.23C1441.51 1430.04 1369.14 1472.88 1294.25 1462.41C1221.88 1452.29 1188.62 1367.91 1125.69 1330.77C1051.84 1287.19 934.308 1305 896.805 1227.86C860.041 1152.25 926.145 1067 960.03 990.046C990.366 921.153 1016.87 844.064 1082.23 806.758C1145.2 770.822 1221.79 797.191 1294.25 799.288Z" fill="url(#paint0_radial_401_183)"/>
<path fill-rule="evenodd" clip-rule="evenodd" d="M1294.25 799.288C1364 801.307 1438.26 781.948 1497.53 818.779C1558.5 856.66 1588.75 927.467 1610.61 995.851C1632.38 1063.96 1640.43 1136.07 1620.95 1204.87C1600.93 1275.56 1558.59 1337.75 1500.91 1383.23C1441.51 1430.04 1369.14 1472.88 1294.25 1462.41C1221.88 1452.29 1188.62 1367.91 1125.69 1330.77C1051.84 1287.19 934.308 1305 896.805 1227.86C860.041 1152.25 926.145 1067 960.03 990.046C990.366 921.153 1016.87 844.064 1082.23 806.758C1145.2 770.822 1221.79 797.191 1294.25 799.288Z" fill="url(#paint1_linear_401_183)"/>
<path fill-rule="evenodd" clip-rule="evenodd" d="M1294.25 799.288C1364 801.307 1438.26 781.948 1497.53 818.779C1558.5 856.66 1588.75 927.467 1610.61 995.851C1632.38 1063.96 1640.43 1136.07 1620.95 1204.87C1600.93 1275.56 1558.59 1337.75 1500.91 1383.23C1441.51 1430.04 1369.14 1472.88 1294.25 1462.41C1221.88 1452.29 1188.62 1367.91 1125.69 1330.77C1051.84 1287.19 934.308 1305 896.805 1227.86C860.041 1152.25 926.145 1067 960.03 990.046C990.366 921.153 1016.87 844.064 1082.23 806.758C1145.2 770.822 1221.79 797.191 1294.25 799.288Z" fill="url(#paint2_linear_401_183)"/>
<path fill-rule="evenodd" clip-rule="evenodd" d="M1294.25 799.288C1364 801.307 1438.26 781.948 1497.53 818.779C1558.5 856.66 1588.75 927.467 1610.61 995.851C1632.38 1063.96 1640.43 1136.07 1620.95 1204.87C1600.93 1275.56 1558.59 1337.75 1500.91 1383.23C1441.51 1430.04 1369.14 1472.88 1294.25 1462.41C1221.88 1452.29 1188.62 1367.91 1125.69 1330.77C1051.84 1287.19 934.308 1305 896.805 1227.86C860.041 1152.25 926.145 1067 960.03 990.046C990.366 921.153 1016.87 844.064 1082.23 806.758C1145.2 770.822 1221.79 797.191 1294.25 799.288Z" fill="url(#paint3_linear_401_183)"/>
<path fill-rule="evenodd" clip-rule="evenodd" d="M1294.25 799.288C1364 801.307 1438.26 781.948 1497.53 818.779C1558.5 856.66 1588.75 927.467 1610.61 995.851C1632.38 1063.96 1640.43 1136.07 1620.95 1204.87C1600.93 1275.56 1558.59 1337.75 1500.91 1383.23C1441.51 1430.04 1369.14 1472.88 1294.25 1462.41C1221.88 1452.29 1188.62 1367.91 1125.69 1330.77C1051.84 1287.19 934.308 1305 896.805 1227.86C860.041 1152.25 926.145 1067 960.03 990.046C990.366 921.153 1016.87 844.064 1082.23 806.758C1145.2 770.822 1221.79 797.191 1294.25 799.288Z" fill="url(#paint4_linear_401_183)"/>
</g>
<g filter="url(#filter1_f_401_183)">
<path fill-rule="evenodd" clip-rule="evenodd" d="M184.704 -187.885C235.568 -186.433 289.718 -200.351 332.944 -173.872C377.403 -146.638 399.458 -95.7326 415.399 -46.5684C431.275 2.39881 437.15 54.2395 422.942 103.703C408.345 154.523 377.47 199.236 335.404 231.928C292.094 265.588 239.315 296.382 184.704 288.855C131.933 281.582 107.678 220.918 61.7849 194.217C7.93104 162.885 -77.7729 175.689 -105.121 120.234C-131.93 65.8703 -83.7251 4.58056 -59.0159 -50.7424C-36.8942 -100.272 -17.5664 -155.693 30.0976 -182.514C76.0113 -208.35 131.865 -189.393 184.704 -187.885Z" fill="#FFBC57"/>
<path fill-rule="evenodd" clip-rule="evenodd" d="M184.704 -187.885C235.568 -186.433 289.718 -200.351 332.944 -173.872C377.403 -146.638 399.458 -95.7326 415.399 -46.5684C431.275 2.39881 437.15 54.2395 422.942 103.703C408.345 154.523 377.47 199.236 335.404 231.928C292.094 265.588 239.315 296.382 184.704 288.855C131.933 281.582 107.678 220.918 61.7849 194.217C7.93104 162.885 -77.7729 175.689 -105.121 120.234C-131.93 65.8703 -83.7251 4.58056 -59.0159 -50.7424C-36.8942 -100.272 -17.5664 -155.693 30.0976 -182.514C76.0113 -208.35 131.865 -189.393 184.704 -187.885Z" fill="url(#paint5_radial_401_183)"/>
<path fill-rule="evenodd" clip-rule="evenodd" d="M184.704 -187.885C235.568 -186.433 289.718 -200.351 332.944 -173.872C377.403 -146.638 399.458 -95.7326 415.399 -46.5684C431.275 2.39881 437.15 54.2395 422.942 103.703C408.345 154.523 377.47 199.236 335.404 231.928C292.094 265.588 239.315 296.382 184.704 288.855C131.933 281.582 107.678 220.918 61.7849 194.217C7.93104 162.885 -77.7729 175.689 -105.121 120.234C-131.93 65.8703 -83.7251 4.58056 -59.0159 -50.7424C-36.8942 -100.272 -17.5664 -155.693 30.0976 -182.514C76.0113 -208.35 131.865 -189.393 184.704 -187.885Z" fill="url(#paint6_linear_401_183)"/>
<path fill-rule="evenodd" clip-rule="evenodd" d="M184.704 -187.885C235.568 -186.433 289.718 -200.351 332.944 -173.872C377.403 -146.638 399.458 -95.7326 415.399 -46.5684C431.275 2.39881 437.15 54.2395 422.942 103.703C408.345 154.523 377.47 199.236 335.404 231.928C292.094 265.588 239.315 296.382 184.704 288.855C131.933 281.582 107.678 220.918 61.7849 194.217C7.93104 162.885 -77.7729 175.689 -105.121 120.234C-131.93 65.8703 -83.7251 4.58056 -59.0159 -50.7424C-36.8942 -100.272 -17.5664 -155.693 30.0976 -182.514C76.0113 -208.35 131.865 -189.393 184.704 -187.885Z" fill="url(#paint7_linear_401_183)"/>
<path fill-rule="evenodd" clip-rule="evenodd" d="M184.704 -187.885C235.568 -186.433 289.718 -200.351 332.944 -173.872C377.403 -146.638 399.458 -95.7326 415.399 -46.5684C431.275 2.39881 437.15 54.2395 422.942 103.703C408.345 154.523 377.47 199.236 335.404 231.928C292.094 265.588 239.315 296.382 184.704 288.855C131.933 281.582 107.678 220.918 61.7849 194.217C7.93104 162.885 -77.7729 175.689 -105.121 120.234C-131.93 65.8703 -83.7251 4.58056 -59.0159 -50.7424C-36.8942 -100.272 -17.5664 -155.693 30.0976 -182.514C76.0113 -208.35 131.865 -189.393 184.704 -187.885Z" fill="url(#paint8_linear_401_183)"/>
<path fill-rule="evenodd" clip-rule="evenodd" d="M184.704 -187.885C235.568 -186.433 289.718 -200.351 332.944 -173.872C377.403 -146.638 399.458 -95.7326 415.399 -46.5684C431.275 2.39881 437.15 54.2395 422.942 103.703C408.345 154.523 377.47 199.236 335.404 231.928C292.094 265.588 239.315 296.382 184.704 288.855C131.933 281.582 107.678 220.918 61.7849 194.217C7.93104 162.885 -77.7729 175.689 -105.121 120.234C-131.93 65.8703 -83.7251 4.58056 -59.0159 -50.7424C-36.8942 -100.272 -17.5664 -155.693 30.0976 -182.514C76.0113 -208.35 131.865 -189.393 184.704 -187.885Z" fill="url(#paint9_linear_401_183)"/>
</g>
<g filter="url(#filter2_f_401_183)">
<path fill-rule="evenodd" clip-rule="evenodd" d="M1950.63 1025.13C1989.75 1019.15 2028.84 1037.66 2060.73 1061.1C2092.49 1084.45 2117.09 1117.16 2127.53 1155.19C2137.68 1192.14 2133.39 1232.1 2117.24 1266.85C2102.27 1299.06 2071.11 1318.14 2042.22 1338.8C2013.58 1359.27 1985.64 1382.38 1950.63 1385.95C1913.37 1389.75 1872.42 1383.82 1844.41 1358.95C1817.24 1334.83 1818.14 1293.95 1807.77 1259.13C1797.73 1225.42 1773.88 1192.22 1784.8 1158.79C1795.72 1125.37 1835.17 1113.47 1862.55 1091.41C1891.87 1067.77 1913.4 1030.83 1950.63 1025.13Z" fill="url(#paint10_linear_401_183)"/>
</g>
</g>
<defs>
<filter id="filter0_f_401_183" x="536" y="438" width="1446" height="1376" filterUnits="userSpaceOnUse" color-interpolation-filters="sRGB">
<feFlood flood-opacity="0" result="BackgroundImageFix"/>
<feBlend mode="normal" in="SourceGraphic" in2="BackgroundImageFix" result="shape"/>
<feGaussianBlur stdDeviation="175" result="effect1_foregroundBlur_401_183"/>
</filter>
<filter id="filter1_f_401_183" x="-463" y="-546" width="1244" height="1186" filterUnits="userSpaceOnUse" color-interpolation-filters="sRGB">
<feFlood flood-opacity="0" result="BackgroundImageFix"/>
<feBlend mode="normal" in="SourceGraphic" in2="BackgroundImageFix" result="shape"/>
<feGaussianBlur stdDeviation="175" result="effect1_foregroundBlur_401_183"/>
</filter>
<filter id="filter2_f_401_183" x="1432" y="674" width="1051" height="1063" filterUnits="userSpaceOnUse" color-interpolation-filters="sRGB">
<feFlood flood-opacity="0" result="BackgroundImageFix"/>
<feBlend mode="normal" in="SourceGraphic" in2="BackgroundImageFix" result="shape"/>
<feGaussianBlur stdDeviation="175" result="effect1_foregroundBlur_401_183"/>
</filter>
<radialGradient id="paint0_radial_401_183" cx="0" cy="0" r="1" gradientUnits="userSpaceOnUse" gradientTransform="translate(1350.54 750.454) rotate(86.701) scale(1120.41 105373)">
<stop stop-color="#EE7C65"/>
<stop offset="0.21875" stop-color="#F7C39D"/>
<stop offset="0.395833" stop-color="#EAD899"/>
<stop offset="0.578125" stop-color="#87D5FF"/>
<stop offset="0.791667" stop-color="#9281F5"/>
<stop offset="1" stop-color="#FA5284"/>
</radialGradient>
<linearGradient id="paint1_linear_401_183" x1="886" y1="1126" x2="1584.78" y2="1126" gradientUnits="userSpaceOnUse">
<stop stop-color="#FF48E2"/>
<stop offset="1" stop-color="#FF2936"/>
</linearGradient>
<linearGradient id="paint2_linear_401_183" x1="886" y1="1135.66" x2="1373.18" y2="1490.75" gradientUnits="userSpaceOnUse">
<stop stop-color="#FAA94D"/>
<stop offset="1" stop-color="#F27038"/>
</linearGradient>
<linearGradient id="paint3_linear_401_183" x1="886" y1="1135.66" x2="1368.37" y2="1492.26" gradientUnits="userSpaceOnUse">
<stop stop-color="#81A1FF"/>
<stop offset="1" stop-color="#5449E8"/>
</linearGradient>
<linearGradient id="paint4_linear_401_183" x1="1122.38" y1="1464" x2="1633.03" y2="1418.65" gradientUnits="userSpaceOnUse">
<stop offset="0.445599" stop-color="#E11D17"/>
<stop offset="1" stop-color="#E11D17" stop-opacity="0.63"/>
</linearGradient>
<radialGradient id="paint5_radial_401_183" cx="0" cy="0" r="1" gradientUnits="userSpaceOnUse" gradientTransform="translate(225.75 -222.993) rotate(86.6539) scale(805.541 76836.4)">
<stop stop-color="#EE7C65"/>
<stop offset="0.21875" stop-color="#F7C39D"/>
<stop offset="0.395833" stop-color="#EAD899"/>
<stop offset="0.578125" stop-color="#87D5FF"/>
<stop offset="0.791667" stop-color="#9281F5"/>
<stop offset="1" stop-color="#FA5284"/>
</radialGradient>
<linearGradient id="paint6_linear_401_183" x1="-113" y1="47" x2="396.57" y2="47" gradientUnits="userSpaceOnUse">
<stop stop-color="#FF48E2"/>
<stop offset="1" stop-color="#FF2936"/>
</linearGradient>
<linearGradient id="paint7_linear_401_183" x1="-113" y1="53.9429" x2="238.745" y2="313.99" gradientUnits="userSpaceOnUse">
<stop stop-color="#FAA94D"/>
<stop offset="1" stop-color="#F27038"/>
</linearGradient>
<linearGradient id="paint8_linear_401_183" x1="-113" y1="53.9429" x2="235.21" y2="315.048" gradientUnits="userSpaceOnUse">
<stop stop-color="#81A1FF"/>
<stop offset="1" stop-color="#5449E8"/>
</linearGradient>
<linearGradient id="paint9_linear_401_183" x1="59.3769" y1="290" x2="431.667" y2="256.466" gradientUnits="userSpaceOnUse">
<stop offset="0.445599" stop-color="#E11D17"/>
<stop offset="1" stop-color="#E11D17" stop-opacity="0.63"/>
</linearGradient>
<linearGradient id="paint10_linear_401_183" x1="1782" y1="1210.69" x2="2029.25" y2="1370.85" gradientUnits="userSpaceOnUse">
<stop stop-color="#EF4969" stop-opacity="0.63"/>
<stop offset="1" stop-color="#FF2936"/>
</linearGradient>
<clipPath id="clip0_401_183">
<rect width="1440" height="1024" fill="white"/>
</clipPath>
</defs>
</svg>
