<svg width="42" height="45" viewBox="0 0 42 45" fill="none" xmlns="http://www.w3.org/2000/svg">
<path d="M11.4734 44.1883C11.4685 34.3971 11.4637 24.606 11.4557 14.8132C11.454 13.0683 11.6248 13.2117 9.86059 13.2085C6.9363 13.2053 4.01201 13.2101 1.08771 13.2053C0.042058 13.2037 0.0178902 13.1763 0.0178902 12.1129C0.016279 8.42167 0.0388356 4.73046 0.00016724 1.03925C-0.00788866 0.212711 0.274068 -0.00318697 1.06838 3.53866e-05C8.60709 0.0242031 16.1458 0.0209807 23.6845 0.00486893C24.3644 0.00325775 24.7044 0.138597 24.7044 0.928075C24.6834 15.295 24.6867 29.6603 24.6834 44.0271C24.6834 44.0803 24.677 44.1335 24.6738 44.1866C20.2736 44.1883 15.8735 44.1883 11.4734 44.1883Z" fill="#3A95FF"/>
<path d="M34.4374 0.013922C38.1303 0.00908843 41.1029 2.94788 41.1029 6.60365C41.1029 10.1724 38.0964 13.1676 34.4761 13.2014C30.9186 13.2369 27.8832 10.2014 27.8735 6.60043C27.8638 2.94949 30.7833 0.0187555 34.4374 0.013922Z" fill="#3A95FF"/>
</svg>
